<svg xmlns="http://www.w3.org/2000/svg" xmlns:xlink="http://www.w3.org/1999/xlink" version="1.1" x="0px" y="0px" viewBox="0 0 64 80" style="enable-background:new 0 0 64 64;" xml:space="preserve"><g><path d="M62,55h-3V24c0-0.552-0.448-1-1-1H47V8c0-0.552-0.448-1-1-1h-1.506c-4.465,0-8.665-1.967-11.523-5.397L32.768,1.36   c-0.38-0.456-1.156-0.456-1.536,0l-0.203,0.243C28.171,5.033,23.971,7,19.506,7H18c-0.552,0-1,0.448-1,1v15H6c-0.552,0-1,0.448-1,1   v31H2c-0.552,0-1,0.448-1,1c0,3.86,3.14,7,7,7h48c3.86,0,7-3.14,7-7C63,55.448,62.552,55,62,55z M22.542,33.748l8.961,5.121   C31.658,38.956,31.829,39,32,39s0.342-0.044,0.496-0.132l8.961-5.121c1.948-1.113,3.455-2.791,4.409-4.748H53v22H11V29h7.133   C19.087,30.957,20.594,32.634,22.542,33.748z M19,9h0.506C24.279,9,28.785,7.016,32,3.529C35.215,7.016,39.721,9,44.494,9H45   v15.197c0,3.221-1.738,6.216-4.535,7.814L32,36.848l-8.465-4.837C20.738,30.413,19,27.418,19,24.197V9z M7,25h10.054   c0.05,0.68,0.144,1.351,0.316,2H10c-0.552,0-1,0.448-1,1v24c0,0.552,0.448,1,1,1h44c0.552,0,1-0.448,1-1V28c0-0.552-0.448-1-1-1   h-7.37c0.172-0.649,0.266-1.32,0.316-2H57v30H7V25z M56,61H8c-2.415,0-4.435-1.721-4.899-4H6h52h2.899   C60.435,59.279,58.415,61,56,61z"/><path d="M24,30h16c0.552,0,1-0.448,1-1V19c0-0.552-0.448-1-1-1h-1v-3c0-3.86-3.14-7-7-7s-7,3.14-7,7v3h-1c-0.552,0-1,0.448-1,1v10   C23,29.552,23.448,30,24,30z M27,15c0-2.757,2.243-5,5-5s5,2.243,5,5v3h-2v-3c0-1.654-1.346-3-3-3s-3,1.346-3,3v3h-2V15z M33,18h-2   v-3c0-0.551,0.449-1,1-1s1,0.449,1,1V18z M39,20v4h-2v2h2v2h-7h-7v-4h2v-2h-2v-2H39z"/><path d="M35,25c0-1.654-1.346-3-3-3s-3,1.346-3,3s1.346,3,3,3S35,26.654,35,25z M32,26c-0.551,0-1-0.449-1-1s0.449-1,1-1   s1,0.449,1,1S32.551,26,32,26z"/></g><text x="0" y="79" fill="#000000" font-size="5px" font-weight="bold" font-family="'Helvetica Neue', Helvetica, Arial-Unicode, Arial, Sans-serif">Created by Template</text><text x="0" y="84" fill="#000000" font-size="5px" font-weight="bold" font-family="'Helvetica Neue', Helvetica, Arial-Unicode, Arial, Sans-serif">from the Noun Project</text></svg>